<svg aria-hidden="true" style="position: absolute; width: 0; height: 0; overflow: hidden;" version="1.1" xmlns="http://www.w3.org/2000/svg" xmlns:xlink="http://www.w3.org/1999/xlink">
<defs>
<symbol id="icon-6201199641640837504" viewBox="0 0 32 32">
<path d="M4.035 1c-0.135-0.002-0.266 0.050-0.362 0.145l-2.524 2.498c-0.314 0.314-0.094 0.86 0.355 0.856h0.996v1.503c0 3.792 2.626 6.961 6.166 7.787 0.492 0.853 1.102 1.56 1.824 2.178-0.1 1.274-0.727 2.391-1.667 3.145-0.525 0.407 0.101 1.196 0.623 0.779 0.997-0.799 1.709-1.936 1.96-3.24 0.346 0.223 0.712 0.419 1.090 0.591-0.035 0.694-0.226 1.34-0.54 1.915-0.32 0.586 0.559 1.065 0.879 0.48 0.334-0.612 0.553-1.298 0.633-2.022 0.801 0.25 1.65 0.388 2.534 0.388s1.734-0.138 2.534-0.388c0.080 0.724 0.299 1.411 0.633 2.022 0.32 0.586 1.199 0.106 0.879-0.48-0.314-0.575-0.505-1.221-0.54-1.915 0.378-0.172 0.744-0.367 1.090-0.591 0.251 1.304 0.963 2.441 1.96 3.24 0.522 0.416 1.148-0.372 0.623-0.779-0.94-0.754-1.567-1.871-1.667-3.145 0.722-0.618 1.332-1.325 1.824-2.178 3.54-0.827 6.166-3.995 6.166-7.787v-1.503h0.996c0.449 0.004 0.667-0.543 0.354-0.856l-2.523-2.498c-0.096-0.095-0.227-0.147-0.362-0.145-0.131 0.002-0.255 0.055-0.347 0.147l-2.473 2.499c-0.314 0.315-0.090 0.852 0.355 0.853h1v1c0 2.030-0.791 3.858-2.088 5.204 0.056-0.395 0.088-0.792 0.088-1.202 0-4.689-3.804-8.501-8.501-8.501s-8.501 3.812-8.501 8.501c0 0.41 0.032 0.807 0.088 1.202-1.297-1.346-2.088-3.174-2.088-5.204v-1h1c0.445-0 0.668-0.537 0.354-0.853l-2.473-2.499c-0.092-0.093-0.216-0.145-0.347-0.147zM4.023 2.207l1.277 1.292h-0.299c-0.278-0.001-0.503 0.224-0.502 0.502v1.498c0 2.525 1.152 5.199 3.507 6.885 0.025 0.079 0.052 0.132 0.071 0.191-2.747-1.029-4.579-3.608-4.579-6.573v-2.001c0.001-0.276-0.222-0.501-0.498-0.502h-0.284l1.307-1.292zM27.979 2.207l1.307 1.292h-0.284c-0.276 0.001-0.499 0.226-0.498 0.502v2.001c0 2.966-1.832 5.545-4.579 6.573 0.019-0.060 0.046-0.112 0.071-0.191 2.355-1.686 3.507-4.36 3.507-6.885v-1.498c0.001-0.278-0.224-0.503-0.502-0.502h-0.299l1.277-1.292zM16.001 4c3.030 0 5.5 2.457 5.5 5.501s-2.472 5.499-5.5 5.499c-3.028 0-5.5-2.456-5.5-5.499s2.47-5.501 5.5-5.501zM15.993 4.994c-0.276 0.004-0.498 0.229-0.495 0.505v0.501h-0.498c-0.822 0-1.498 0.656-1.498 1.5v1c0 0.838 0.676 1.499 1.498 1.499h0.498v2h-0.5c-0.272 0-0.498-0.212-0.498-0.498 0-0.667-1-0.667-1 0 0 0.832 0.676 1.498 1.498 1.498h0.5v0.503c0 0.667 1 0.667 1 0v-0.503h0.504c0.836 0 1.498-0.676 1.498-1.498v-1c0-0.842-0.676-1.503-1.498-1.503h-0.504v-1.998h0.503c0.276 0 0.498 0.214 0.498 0.5 0 0.667 1 0.667 1 0 0-0.822-0.66-1.5-1.498-1.5h-0.503v-0.501c0.004-0.281-0.224-0.508-0.505-0.505zM15 7h0.498v1.998h-0.498c-0.286 0-0.498-0.224-0.498-0.498v-1c0-0.272 0.212-0.5 0.498-0.5zM16.498 9.999h0.504c0.286 0 0.498 0.228 0.498 0.502v1c0 0.286-0.226 0.498-0.498 0.498h-0.504v-2zM15.005 18.993c-0.281-0.004-0.509 0.225-0.506 0.506 0 2.477-2.008 4.492-4.495 4.492-0.667 0-0.667 1 0 1 3.028 0 5.496-2.455 5.496-5.492 0.004-0.276-0.219-0.503-0.495-0.506zM16.993 18.993c-0.276 0.004-0.498 0.23-0.495 0.506 0 3.037 2.469 5.492 5.496 5.492 0.667 0 0.667-1 0-1-2.487 0-4.495-2.015-4.495-4.492 0.004-0.281-0.225-0.509-0.506-0.506zM10.61 20.504c-0.163-0.011-0.329 0.004-0.492 0.047-0.411 0.11-0.745 0.384-0.938 0.743-0.116-0.062-0.235-0.113-0.358-0.156-0.552-0.191-1.17-0.189-1.745 0.041-0.815 0.326-1.376 1.040-1.53 1.86-1.475-0.208-2.954 0.426-3.824 1.668-0.964 1.376-0.964 3.212 0 4.588s2.687 2.003 4.31 1.568c0.657-0.165 0.393-1.152-0.259-0.967-1.22 0.327-2.507-0.142-3.231-1.177s-0.724-2.406 0-3.44c0.684-0.978 1.878-1.449 3.025-1.225 0.002 0.008 0.006 0.025 0.008 0.032 0.29 1.204 1.42 2.017 2.661 1.901 0.717-0.013 0.616-1.112-0.092-0.993-0.746 0.070-1.426-0.428-1.599-1.145-0.173-0.716 0.209-1.464 0.904-1.742s1.479-0.006 1.854 0.643c0.33 0.595 1.219 0.081 0.867-0.502-0.049-0.085-0.098-0.156-0.164-0.247 0-0.235 0.15-0.424 0.371-0.483s0.446 0.034 0.561 0.232c0.33 0.595 1.219 0.081 0.867-0.502-0.254-0.439-0.708-0.711-1.195-0.745zM21.389 20.504c-0.487 0.034-0.942 0.306-1.195 0.745-0.352 0.583 0.537 1.097 0.867 0.502 0.114-0.198 0.34-0.292 0.561-0.232s0.371 0.249 0.371 0.483c-0.067 0.091-0.115 0.162-0.164 0.247-0.352 0.583 0.537 1.097 0.867 0.502 0.375-0.649 1.158-0.921 1.854-0.643s1.077 1.027 0.904 1.742c-0.173 0.717-0.853 1.214-1.599 1.145-0.708-0.118-0.809 0.98-0.092 0.993 1.241 0.116 2.371-0.697 2.661-1.901 0.002-0.008 0.006-0.025 0.008-0.032 1.148-0.225 2.342 0.247 3.026 1.225 0.724 1.035 0.724 2.406 0 3.44s-2.013 1.504-3.232 1.177c-0.652-0.185-0.916 0.802-0.259 0.967 1.623 0.435 3.347-0.192 4.311-1.568s0.963-3.212 0-4.588c-0.87-1.242-2.35-1.876-3.825-1.668-0.154-0.82-0.715-1.535-1.53-1.86-0.575-0.23-1.193-0.232-1.745-0.041-0.124 0.043-0.243 0.095-0.358 0.156-0.192-0.359-0.527-0.633-0.938-0.743-0.163-0.044-0.329-0.058-0.492-0.047zM17.988 24.607c-0.084 0.002-0.166 0.025-0.238 0.067-0.649 0.374-0.923 1.182-0.637 1.874 0.178 0.431 0.535 0.739 0.958 0.863-0.148 0.61-0.066 1.269 0.264 1.84 0.565 0.978 1.72 1.457 2.811 1.165s1.856-1.286 1.856-2.415c0.002-0.668-1-0.67-1.002-0.003 0 0.681-0.455 1.276-1.113 1.452s-1.345-0.112-1.686-0.702c-0.341-0.59-0.244-1.329 0.237-1.811 0.547-0.469-0.237-1.252-0.705-0.705-0.072 0.072-0.158 0.158-0.208 0.238-0.222 0.004-0.402-0.101-0.487-0.308-0.098-0.235-0.009-0.495 0.212-0.622 0.451-0.258 0.258-0.948-0.262-0.935zM14.010 24.608c-0.52-0.014-0.713 0.675-0.262 0.934 0.221 0.127 0.309 0.387 0.212 0.622-0.085 0.206-0.265 0.312-0.487 0.308-0.050-0.081-0.136-0.166-0.208-0.238-0.469-0.547-1.252 0.237-0.705 0.705 0.482 0.482 0.578 1.221 0.237 1.811s-1.027 0.878-1.686 0.702c-0.658-0.176-1.113-0.771-1.113-1.452-0.002-0.668-1.004-0.665-1.002 0.004 0 1.129 0.766 2.123 1.856 2.415s2.246-0.187 2.811-1.165c0.329-0.571 0.412-1.23 0.264-1.84 0.423-0.125 0.78-0.433 0.958-0.863 0.287-0.692 0.011-1.5-0.637-1.874-0.073-0.042-0.154-0.065-0.238-0.067z"></path>
</symbol>
<symbol id="icon-19270963021640837503" viewBox="0 0 32 32">
<path d="M16 1c-0.25 0-0.5 0.167-0.5 0.5v1c0 0.667 1 0.667 1 0v-1c0-0.333-0.25-0.5-0.5-0.5zM16 4c-2.711-0-4.94 1.937-5.409 4.499h-8.089c-0.822 0-1.502 0.666-1.502 1.499 0 0.655 0.426 1.221 1.001 1.416l-0.001 4.084c0 1.317 0.455 2.497 1.196 3.436 0.447 0.762 0.891 1.631 1.235 2.566-0.791 0.039-1.432 0.69-1.432 1.498 0 0.269 0.069 0.518 0.193 0.736-0.419 0.264-0.693 0.737-0.693 1.264 0 0.387 0.142 0.736 0.382 1.002-0.24 0.265-0.383 0.612-0.383 0.999 0 0.833 0.68 1.503 1.503 1.503 0 0.011-0.002 0.022-0.002 0.033v0.981c0 0.831 0.681 1.483 1.499 1.483h4.002c0.834 0 1.498-0.666 1.498-1.483v-1.017h4.294l0.353 0.353c0.195 0.196 0.514 0.196 0.709 0l0.353-0.353h2.293v0.5c0 1.117 0.903 2 2.002 2h7.996c1.099 0 2.002-0.883 2.002-2v-4.499c-0-1.099-0.883-2.001-2.002-2.001h-0.998v-0.498c0-0.822-0.66-1.503-1.499-1.503h-2.356l-0.014-0.081c-0.115-0.725-0.477-1.241-0.997-1.649-0.486-0.381-1.052-0.636-1.626-0.913l-2.796-1.309c-0.067-0.032-0.14-0.048-0.214-0.048v-0.748c0.673-0.447 1.195-1.042 1.545-1.751h0.455c1.108 0 2.001-0.893 2.001-2.001 0-0.74-0.406-1.385-1-1.731v-0.767c0-3.038-2.442-5.501-5.499-5.501zM8.2 4.214c-0.376 0.022-0.686 0.508-0.332 0.861l0.708 0.707c0.471 0.471 1.179-0.236 0.707-0.707l-0.707-0.707c-0.118-0.118-0.251-0.162-0.376-0.154zM23.8 4.214c-0.125-0.008-0.258 0.037-0.376 0.154l-0.707 0.707c-0.471 0.471 0.236 1.179 0.707 0.707l0.708-0.707c0.354-0.354 0.044-0.839-0.332-0.861zM2.502 9.5h9.996c0.286 0 0.502 0.226 0.502 0.498s-0.216 0.502-0.502 0.502h-9.996c-0.286 0-0.502-0.23-0.502-0.502s0.216-0.498 0.502-0.498zM14.266 9.663c0.478 0.191 1.069 0.337 1.734 0.337 0.678 0 1.308-0.162 1.733-0.337 0.367 0.662 1.018 1.125 1.766 1.286v1.083c0 1.928-1.566 3.468-3.499 3.468-1.286 0-2.391-0.679-3-1.688l-0.001-2.396c0.565-0.202 0.979-0.721 0.999-1.363 0.118-0.135 0.21-0.275 0.268-0.39zM20.499 10.999c0.558 0 1.001 0.454 1.001 1s-0.443 1-1.001 1h-0.105c0.069-0.311 0.105-0.634 0.105-0.967zM3.001 11.501h8.998l0.001 3.997c0 2.502-2.014 4.503-4.5 4.503s-4.5-2.001-4.5-4.503zM25 12c-0.667 0-0.667 1 0 1h1c0.667 0 0.667-1 0-1zM7.519 12.5c-0.017-0.001-0.035-0-0.052 0.001-0.182 0.011-0.344 0.122-0.421 0.288l-0.66 1.417-1.458 0.215c-0.406 0.057-0.575 0.552-0.288 0.845l1.070 1.104-0.262 1.547c-0.071 0.415 0.37 0.726 0.737 0.52l1.314-0.731 1.288 0.72c0.365 0.205 0.806-0.103 0.738-0.517l-0.262-1.572 1.089-1.081c0.293-0.291 0.127-0.791-0.281-0.85l-1.473-0.221-0.646-1.396c-0.079-0.171-0.248-0.282-0.436-0.289zM13 15.365c0.156 0.139 0.326 0.269 0.5 0.385l-0.002 0.748c-0.074 0.001-0.146 0.017-0.211 0.049l-0.429 0.201c0.091-0.401 0.142-0.817 0.142-1.25zM17.499 16.246v1.046l-1.207 1.207h-0.587l-1.205-1.207v-1.044c0.47 0.165 0.972 0.252 1.5 0.252s1.029-0.089 1.499-0.254zM13.395 17.603l1.398 1.398-0.793 0.794-1.664-1.667c0.008-0.013 0.013-0.027 0.021-0.040zM18.606 17.603l1.079 0.505-1.685 1.688-0.794-0.794zM20.65 18.559l0.429 0.201c0.582 0.28 1.091 0.522 1.439 0.795 0.342 0.269 0.543 0.557 0.619 0.99-0.66 0.16-1.138 0.756-1.138 1.457v0.498h-0.998c-1.119 0-2.002 0.902-2.002 2.001v2.999h-1.293l0.146-0.146c0.114-0.114 0.166-0.276 0.14-0.436l-0.957-5.741 0.471-0.463 0.14 0.14c0.195 0.197 0.514 0.197 0.709 0zM11.773 18.982l1.872 1.871c0.196 0.197 0.514 0.197 0.709 0l0.15-0.15 0.462 0.463-0.96 5.752c-0.026 0.159 0.026 0.322 0.141 0.436l0.146 0.146h-3.668c-0.166-0.184-0.386-0.333-0.626-0.417v-2.084h0.251c0.961 0 1.749-0.777 1.749-1.75 0-0.086-0.006-0.168-0.018-0.251h1.017c0.667 0 0.665-1 0-1h-1.499c-0.009 0-0.015 0.002-0.023 0.004-0.245-0.241-0.568-0.411-0.919-0.475 0.335-0.916 0.778-1.792 1.216-2.545zM15.709 19.499h0.583l0.508 0.508-0.796 0.78-0.793-0.79zM9.913 20.445c-0.149 0.347-0.282 0.69-0.404 1.055h-0.26c-0.961 0-1.749 0.776-1.749 1.749 0 0.886 0.657 1.603 1.5 1.725v2.026l-2.5-0.001c0-0.388-0.143-0.734-0.383-0.999 0.24-0.266 0.383-0.615 0.383-1.002s-0.14-0.734-0.38-0.999c0.239-0.266 0.38-0.614 0.38-1.001 0-0.649-0.408-1.197-0.979-1.407-0.13-0.397-0.272-0.768-0.433-1.144 0.711 0.349 1.539 0.555 2.411 0.555s1.703-0.208 2.413-0.557zM23.5 21.5h3.001c0.272 0 0.499 0.216 0.499 0.502v0.498h-4v-0.498c0-0.274 0.214-0.502 0.5-0.502zM4.502 22.5h0.496c0.286 0 0.502 0.226 0.502 0.498s-0.216 0.502-0.502 0.502h-0.496c-0.286 0-0.502-0.23-0.502-0.502s0.216-0.498 0.502-0.498zM9.249 22.5h1.002c0.424 0 0.749 0.339 0.749 0.749s-0.325 0.749-0.749 0.749h-1.002c-0.424 0-0.749-0.339-0.749-0.749s0.325-0.749 0.749-0.749zM21.002 23.5h7.996c0.563 0 1.002 0.452 1.002 1.001v0.498c0 0.839-0.676 1.501-1.498 1.502v-0.502c0-0.269-0.221-0.498-0.503-0.498h-2c-0.275 0.001-0.497 0.223-0.498 0.498v0.502h-1.001v-0.502c0-0.269-0.22-0.498-0.502-0.498h-2c-0.275 0.001-0.497 0.223-0.498 0.498v0.502c-0.822 0-1.5-0.662-1.5-1.502v-0.498c0-0.549 0.439-1.001 1.002-1.001zM4.001 24.5c0.333-0 0.999 0.001 0.999 0.001 0.25-0.006 0.5 0.199 0.5 0.497 0 0.27-0.216 0.502-0.502 0.502h-0.997c-0.286 0-0.502-0.23-0.502-0.502s0.216-0.498 0.502-0.498zM4.001 26.501h0.997c0.286 0 0.502 0.226 0.502 0.498s-0.216 0.502-0.502 0.502h-0.997c-0.286 0-0.502-0.23-0.502-0.502s0.216-0.498 0.502-0.498zM30 27.001v1.999c0 0.551-0.439 1-1.002 1h-7.996c-0.563 0-1.002-0.449-1.002-1v-1.998c0.418 0.316 0.933 0.499 1.5 0.499v0.498c-0.001 0.276 0.222 0.502 0.498 0.503h2c0.278 0.001 0.503-0.225 0.502-0.503v-0.498h1.001v0.498c-0.001 0.276 0.222 0.502 0.498 0.503h2c0.278 0.001 0.504-0.225 0.503-0.503v-0.498c0.566-0 1.081-0.184 1.498-0.5z"></path>
</symbol>
<symbol id="icon-2745925921640837503" viewBox="0 0 32 32">
<path d="M13.5 1c-2.712-0-4.939 1.94-5.407 4.499h-5.092c-1.117 0-2.001 0.902-2.001 2.001v18.499c0 1.117 0.902 2 2.001 2h8.41l-0.335 2.001h-1.576c-0.667 0-0.667 1 0 1h12c0.667 0 0.667-1 0-1h-1.575l-0.335-2.001h8.409c1.099 0 2.001-0.881 2.001-2v-10.636c0.163-0.257 0.297-0.559 0.38-0.869l0.517-1.934c0.428-1.597-0.511-3.241-2.122-3.673 0.095-0.353 0.058-0.703-0.084-1.012 0.763-0.276 1.31-1.013 1.31-1.874v-3.001c0-1.099-0.884-2.001-2.001-2.001h-5.003c-1.099 0-1.996 0.888-1.996 2.001v2.499h-2.090c-0.468-2.56-2.698-4.5-5.41-4.5zM23.5 4c0.276 0 0.5 0.224 0.5 0.5s-0.224 0.5-0.5 0.5c-0.276 0-0.5-0.224-0.5-0.5s0.224-0.5 0.5-0.5zM25.5 4c0.276 0 0.5 0.224 0.5 0.5s-0.224 0.5-0.5 0.5c-0.276 0-0.5-0.224-0.5-0.5s0.224-0.5 0.5-0.5zM27.5 4c0.276 0 0.5 0.224 0.5 0.5s-0.224 0.5-0.5 0.5c-0.276 0-0.5-0.224-0.5-0.5s0.224-0.5 0.5-0.5zM3.001 6.5h4.997v0.767c-0.595 0.346-1 0.992-1 1.733 0 1.108 0.902 2.001 2.001 2.001h0.457c0.35 0.707 0.871 1.302 1.544 1.75v0.248c-0.019 0.001-0.040 0.002-0.058 0.006-0.052 0.006-0.103 0.021-0.153 0.044l-2.793 1.31c-0.574 0.276-1.143 0.531-1.629 0.912s-0.873 0.891-0.993 1.649l-1.201 6.581h-2.172v-16c0-0.549 0.437-1.001 1-1.001zM18.999 6.5h2.001v3.001c0.004 0.443 0.538 0.663 0.853 0.351l1.855-1.852h2.209c-0.013 0.038-0.028 0.071-0.039 0.112l-0.904 3.381c-0.004 0.013-0.090 0.297-0.243 0.661-0.145 0.344-0.354 0.735-0.533 0.94-0.373 0.001-0.752 0.137-1.050 0.399l-2.409 1.879c-0.521-0.363-1.196-0.76-1.729-1.017l-2.798-1.309c-0.066-0.031-0.138-0.047-0.211-0.047l0.001-0.251c0.66-0.429 1.19-1.041 1.54-1.749h0.456c1.098 0 2.003-0.893 2.003-2.001 0-0.739-0.408-1.386-1.001-1.732zM11.764 6.661c0.531 0.201 1.058 0.34 1.736 0.34 0.547 0 1.172-0.108 1.732-0.339 0.368 0.663 1.017 1.126 1.766 1.286v1.083c0 1.928-1.567 3.469-3.498 3.469-1.95 0-3.5-1.565-3.5-3.469v-1.083c0.739-0.15 1.421-0.643 1.764-1.287zM8.998 7.999l0.002 1.032c0 0.333 0.035 0.656 0.104 0.969h-0.105c-0.558 0-1-0.454-1-1.001s0.441-1 0.999-1zM17.998 7.999c0.558 0.001 1.002 0.454 1.002 1s-0.445 1-1.003 1h-0.105c0.069-0.312 0.106-0.635 0.106-0.968zM27.262 8.005c0.064-0.008 0.13-0.006 0.195 0.013 0.26 0.070 0.428 0.337 0.355 0.613l-0.388 1.446c-0.050 0.184 0.009 0.38 0.151 0.506 0 0 0.129 0.126 0.235 0.364 0.122 0.277 0.225 0.705 0.060 1.322-0.172 0.645 0.796 0.903 0.968 0.259 0.223-0.832 0.096-1.512-0.104-1.968-0.117-0.268-0.225-0.401-0.278-0.479l0.061-0.227c1.079 0.289 1.699 1.382 1.413 2.447l-0.517 1.935c-0.242 0.902-1.009 1.484-1.914 1.581-0.043-0.058-0.093-0.119-0.145-0.171l-2.122-2.122c-0.021-0.021-0.042-0.041-0.063-0.061 0.208-0.302 0.36-0.627 0.484-0.921 0.179-0.426 0.286-0.784 0.286-0.784l0.906-3.387c0.055-0.207 0.225-0.343 0.417-0.368zM12 13.247c0.471 0.166 0.973 0.256 1.5 0.256s1.030-0.090 1.5-0.255v0.547c-0.401 0.402-0.805 0.804-1.207 1.206h-0.587l-1.206-1.211zM24.181 14.096c0.131-0.004 0.252 0.044 0.346 0.138l2.126 2.126c0.177 0.177 0.199 0.489-0.017 0.713l-3.903 3.727c-0.549 0.549-1.059 0.725-1.514 0.702-0.468-0.024-0.948-0.266-1.398-0.716-0.468-0.464-1.18 0.226-0.709 0.708 0.123 0.123 0.255 0.241 0.389 0.345-0.001 0.556-0.001 1.109-0.001 1.663h-4.070l-0.896-5.823 0.471-0.462 0.14 0.14c0.212 0.212 0.561 0.191 0.746-0.044l1.927-2.407 0.76 0.355c0.544 0.262 1.481 0.826 1.856 1.129 0.18 0.146 0.437 0.149 0.62 0.008l2.731-2.132c0.127-0.111 0.266-0.166 0.396-0.169zM10.896 14.105l1.397 1.396-0.751 0.751-1.429-1.781zM16.107 14.105l0.777 0.363-1.427 1.784-0.751-0.751zM9.184 14.906l1.926 2.406c0.185 0.232 0.531 0.253 0.742 0.044l0.151-0.151 0.465 0.465-0.897 5.832h-1.882l0.284-0.841c0.115-0.324-0.127-0.66-0.493-0.662-0.224 0.019-0.394 0.158-0.455 0.35l-0.392 1.153h-3.442l1.169-6.416c0.071-0.455 0.278-0.754 0.628-1.028 0.349-0.274 0.856-0.515 1.438-0.796zM13.206 16.002h0.587l0.506 0.507-0.797 0.781-0.792-0.792zM29 16.343v7.159h-8.501v-1.126c0.216 0.069 0.439 0.112 0.669 0.123 0.773 0.039 1.56-0.278 2.27-0.987l3.916-3.742c0.269-0.28 0.414-0.63 0.435-0.981 0.439-0.072 0.844-0.218 1.212-0.445zM13.356 18.472c0.093 0.028 0.193 0.028 0.286 0l0.822 5.355-0.967 0.967-0.968-0.967zM8.5 19.002c-0.667 0-0.667 1 0 1h2c0.667 0 0.667-1 0-1z"></path>
</symbol>
<symbol id="icon-10802168131640837504" viewBox="0 0 32 32">
<path d="M23.475 1c-0.135 0.008-0.262 0.068-0.351 0.17l-3.499 4.001c-0.285 0.323-0.055 0.832 0.376 0.831h1.499v1.498c0.015 0.652 0.986 0.652 1 0v-2.001c-0.001-0.275-0.223-0.497-0.498-0.498h-0.9l2.398-2.738 2.399 2.738h-0.9c-0.275 0.001-0.497 0.223-0.498 0.498v1.503c0.015 0.652 0.986 0.652 1 0v-1h1.498c0.432 0.002 0.663-0.507 0.377-0.831l-3.499-4.001c-0.101-0.115-0.249-0.178-0.402-0.17zM8.998 3c-1.941 0-3.499 1.573-3.499 3.5 0 1.040 0.451 1.973 1.174 2.615-1.255 0.357-2.174 1.507-2.174 2.884v6.002c0 0.425 0.13 0.819 0.358 1.145-0.511 0.24-0.857 0.757-0.857 1.356v0.498h-0.999c-1.119 0-2.001 0.899-2.001 1.998v4.502c0 1.113 0.902 2 2.001 2h6.999c0.365-0 0.703-0.093 0.999-0.265v1.263c-0.001 0.278 0.224 0.503 0.502 0.502h10.999c3.592 0 6.5-2.896 6.5-6.499v-8.003h1.498c0.419 0 0.653-0.484 0.392-0.812l-3.997-4.997c-0.096-0.12-0.242-0.19-0.395-0.188-0.151 0.001-0.294 0.071-0.388 0.188l-4.001 4.997c-0.262 0.328-0.028 0.812 0.392 0.812h1.498v6.5h-3.499c-0.276 0.001-0.499 0.226-0.498 0.502v1.499h-3.503c-0.276 0.001-0.499 0.226-0.498 0.502v1.498h-1v-4.001c0-0.542-0.247-1.020-0.554-1.48s-0.691-0.906-1.066-1.344c-0.375-0.438-0.741-0.864-0.997-1.248s-0.384-0.717-0.384-0.926c-0-0.503-0-0.896 0-1.294l0.646 0.647c0.094 0.093 0.221 0.145 0.354 0.145h3.001c1.099 0 2.001-0.885 2.001-2.001 0-0.941-0.642-1.715-1.501-1.935l-0.002-3.255 3.725-1.86c0.372-0.184 0.372-0.713 0-0.896l-3.997-2.001c-0.076-0.037-0.16-0.055-0.244-0.052-0.27 0.009-0.485 0.232-0.483 0.503-0.002 2.507 0.002 4.995 0.002 7.498l-1.216 0.002c-0.161-0.255-0.935-1.475-1.344-2.237-0.291-0.542-0.693-1.086-1.185-1.513-0.203-0.176-0.417-0.327-0.653-0.453 0.854-0.639 1.398-1.654 1.398-2.799 0-1.927-1.562-3.5-3.503-3.5zM8.998 4c1.37 0 2.503 1.113 2.503 2.5s-1.125 2.498-2.503 2.498c-1.378 0-2.498-1.111-2.498-2.498s1.128-2.5 2.498-2.5zM25 8.5c-0.25 0-0.5 0.166-0.5 0.5v0.5c0 0.667 1 0.667 1 0v-0.5c0-0.333-0.25-0.5-0.5-0.5zM22 9c-0.25 0-0.5 0.166-0.5 0.5v0.5c0 0.667 1 0.667 1 0v-0.5c0-0.333-0.25-0.5-0.5-0.5zM7.5 9.999h2.499c0.331 0 0.723 0.182 1.1 0.509s0.723 0.786 0.96 1.229c0.495 0.923 1.521 2.532 1.521 2.532 0.091 0.144 0.25 0.232 0.421 0.232h2c0.563 0 1.001 0.447 1.001 0.996s-0.438 1-1.001 1h-2.794l-1.206-1.206c0-0.105 0-0.178 0-0.292 0-0.277-0.223-0.5-0.5-0.5s-0.5 0.223-0.5 0.5c-0.001 1.166-0.001 1.834-0.001 3.001 0 0.542 0.247 1.020 0.554 1.48s0.691 0.906 1.066 1.344c0.375 0.438 0.741 0.867 0.997 1.251s0.384 0.715 0.384 0.923v4.001h-1.999v-4.001c0-1.099-0.882-1.998-2.001-1.998h-1v-0.498c0-0.597-0.345-1.117-0.857-1.358 0.228-0.325 0.357-0.717 0.357-1.143v-2.451l0.491-2.45c0.131-0.655-0.851-0.851-0.981-0.196l-0.499 2.499c-0.008 0.032-0.009 0.064-0.011 0.096v2.503c-0 0.559-0.446 0.994-1 0.999-0.554-0.006-1.001-0.44-1.001-0.999v-6.002c0-1.117 0.905-2 2.001-2zM23.5 10.5c-0.25 0-0.5 0.166-0.5 0.5v0.5c0 0.667 1 0.667 1 0v-0.5c0-0.333-0.25-0.5-0.5-0.5zM5.5 20c0.668 0.001 1.333 0 2.001 0 0.272 0 0.499 0.216 0.499 0.502v0.498h-3v-0.498c0-0.274 0.214-0.502 0.5-0.502zM3.001 22h6.999c0.546 0 1 0.435 1 0.998 0 1.394-1.124 2.502-2.498 2.502h-0.502v-0.501c-0.001-0.275-0.223-0.497-0.498-0.498h-2.003c-0.275 0.001-0.497 0.223-0.498 0.498v0.501h-0.502c-1.374 0-2.498-1.108-2.498-2.502 0-0.563 0.454-0.998 1-0.998zM2.001 25.452c0.633 0.646 1.515 1.048 2.498 1.048h0.502v0.499c-0.001 0.276 0.222 0.501 0.498 0.502h2.003c0.276-0.001 0.499-0.226 0.498-0.502v-0.499h0.502c0.983 0 1.865-0.402 2.498-1.048v2.044c-0 0.002-0.001 0.003-0.001 0.005v0.009c-0.006 0.542-0.44 0.99-0.999 0.99h-6.999c-0.563-0-1-0.454-1-1z"></path>
</symbol>
<symbol id="icon-20906768031640837504" viewBox="0 0 32 32">
<path d="M3.477 1c-0.34 0.015-0.566 0.357-0.446 0.676l0.62 1.646-0.421 1.572c-0.068 0.246 0.061 0.504 0.299 0.598l3.791 1.473c0.469 0.181 0.882-0.366 0.579-0.768l-1.369-1.802 0.506-1.185c0.105-0.244 0.001-0.527-0.236-0.646l-3.078-1.514c-0.076-0.038-0.16-0.055-0.244-0.052zM21.5 1c-2.061 0.001-3.695 1.069-4.631 2.546-0.285-0.031-0.577-0.047-0.869-0.047-4.443 0-8.002 3.579-8.002 8.002v1.502c-0.309 0.416-0.498 0.94-0.498 1.499 0 1.385 1.124 2.499 2.499 2.499 0.123 0 0.241-0.011 0.362-0.029 0.342 0.896 0.912 1.677 1.638 2.275v0.754c-0.075 0-0.152 0.017-0.222 0.052l-2.001 1c-0.135 0.068-0.232 0.194-0.264 0.342l-4.184 1.869c-1.319 0.596-2.667 1.419-3.020 3.149l-0.232 1.201c-0.203 1.008 0.005 1.893 0.532 2.493 0.529 0.602 1.331 0.893 2.192 0.893 7.691 0 15.21-0 22.396 0 0.861 0 1.663-0.291 2.192-0.893 0.528-0.6 0.736-1.485 0.532-2.493l-0.232-1.201c-0.353-1.73-1.701-2.553-3.020-3.149l-4.184-1.869c-0.032-0.148-0.129-0.274-0.264-0.342l-2.001-1c-0.070-0.035-0.146-0.053-0.222-0.054v-0.751c0.303-0.251 0.581-0.537 0.825-0.848 0.157 0.064 0.328 0.099 0.508 0.099h0.333c0.732 0 1.333-0.587 1.333-1.336v-0.705c0.584-0.149 1.002-0.678 1.002-1.296v-0.662c0.664-0.002 0.664-0.998 0-1v-1c0.549-0.027 0.642-0.669 0.287-0.908 0.322-0.455 0.756-0.865 1.075-1.205 0.779-0.834 1.636-1.946 1.636-3.909 0-2.747-2.212-5.475-5.5-5.478zM21.5 2.001c2.716 0.002 4.503 2.268 4.503 4.477 0 1.564-0.647 2.453-1.369 3.226-0.361 0.386-0.744 0.745-1.063 1.163-0.153 0.2-0.279 0.41-0.377 0.634h-1.196v-1.823l1.352-1.32c0.31-0.294 0.132-0.816-0.317-0.861-0.16-0.002-0.289 0.052-0.384 0.148l-1.148 1.122-1.148-1.122c-0.095-0.097-0.225-0.15-0.385-0.148-0.45 0.046-0.627 0.568-0.316 0.861l1.352 1.32v1.823h-1.19c-0.098-0.223-0.23-0.434-0.383-0.634-0.319-0.418-0.701-0.777-1.063-1.163-0.722-0.772-1.369-1.662-1.369-3.226 0-2.208 1.787-4.474 4.503-4.477zM21.5 3.001c-1.25 0-2.405 0.667-3.030 1.749-0.311 0.572 0.53 1.055 0.867 0.498 0.447-0.774 1.269-1.247 2.163-1.247 0.682 0.015 0.682-1.015 0-1zM18.501 6c-0.276 0-0.5 0.224-0.5 0.5s0.224 0.5 0.5 0.5c0.276 0 0.5-0.224 0.5-0.5s-0.224-0.5-0.5-0.5zM17.424 10.161c0.071 0.080 0.142 0.15 0.212 0.226 0.39 0.417 0.756 0.765 1 1.085 0.031 0.040 0.054 0.078 0.081 0.117-0.356 0.239-0.267 0.911 0.283 0.911v1c-0.668 0-0.668 1 0 1l0.001 0.662c0 0.629 0.428 1.149 0.999 1.297v0.704c0 0.188 0.040 0.371 0.108 0.532-0.818 1.096-2.124 1.804-3.61 1.804h-1c-2.478 0-4.505-1.998-4.501-4.499l0.008-3.009c2.42-0.074 4.677-0.718 6.419-1.83zM2.392 11.416c-0.201 0.012-0.375 0.142-0.442 0.332-0.628 1.68-0.949 3.46-0.949 5.253 0 1.792 0.322 3.569 0.949 5.248 0.231 0.63 1.177 0.277 0.937-0.351-0.585-1.567-0.886-3.225-0.886-4.897 0-1.674 0.3-3.334 0.886-4.902 0.134-0.34-0.13-0.704-0.495-0.683zM29.582 11.416c-0.369 0.016-0.594 0.364-0.469 0.683 0.586 1.568 0.886 3.228 0.886 4.902 0 1.673-0.301 3.331-0.886 4.897-0.239 0.627 0.706 0.981 0.938 0.351 0.627-1.679 0.949-3.456 0.949-5.248 0-1.793-0.321-3.573-0.949-5.253-0.067-0.19-0.242-0.32-0.469-0.332zM9.999 13l-0.002 2c0 0.338 0.037 0.667 0.095 0.988-0.031 0.002-0.062 0.012-0.093 0.012-0.834 0-1.499-0.673-1.499-1.498s0.663-1.503 1.499-1.502zM4.381 13.401c-0.22 0.013-0.405 0.167-0.457 0.381-0.28 1.050-0.425 2.132-0.425 3.219 0 1.085 0.142 2.165 0.421 3.214 0.159 0.667 1.161 0.4 0.967-0.258-0.257-0.965-0.388-1.958-0.388-2.956 0-1 0.13-1.998 0.388-2.964 0.093-0.329-0.164-0.653-0.506-0.636zM27.596 13.401c-0.346 0.015-0.57 0.326-0.482 0.636 0.258 0.966 0.388 1.964 0.388 2.964 0 0.998-0.131 1.991-0.388 2.956-0.194 0.657 0.808 0.925 0.967 0.258 0.279-1.049 0.421-2.129 0.421-3.214 0-1.087-0.145-2.168-0.425-3.219-0.052-0.214-0.237-0.368-0.48-0.381zM6.516 15.548c-0.262 0.030-0.446 0.22-0.466 0.456-0.033 0.33-0.048 0.665-0.048 0.997 0 0.334 0.014 0.667 0.048 1 0.084 0.642 1.041 0.547 0.996-0.1-0.030-0.299-0.044-0.599-0.044-0.9 0-0.299 0.014-0.6 0.044-0.897 0.035-0.3-0.202-0.562-0.53-0.556zM25.484 15.548c-0.329-0.006-0.565 0.256-0.53 0.556 0.030 0.297 0.044 0.599 0.044 0.897-0 0.301-0.014 0.601-0.044 0.9-0.045 0.646 0.912 0.742 0.996 0.1 0.034-0.333 0.048-0.666 0.048-1 0-0.332-0.015-0.667-0.048-0.997-0.020-0.236-0.204-0.426-0.466-0.456zM19.001 19.903v0.782l-2.159 1.814h-1.684l-2.159-1.814v-0.781c0.75 0.382 1.598 0.595 2.499 0.595h1c0.903 0 1.752-0.213 2.503-0.596zM11.929 21.094l2.351 1.975-1.27 1.613-2.251-3.005zM20.071 21.094l1.17 0.583-2.251 3.005-1.27-1.613zM9.965 22.285l2.636 3.515c0.197 0.263 0.589 0.269 0.793 0.012l0.534-0.677 0.528 0.53-0.867 4.336h-8.787c-0.639 0-1.136-0.208-1.439-0.554s-0.458-0.874-0.303-1.639l0.232-1.196c0.264-1.293 1.305-1.919 2.447-2.436zM22.035 22.285l4.226 1.891c1.142 0.516 2.183 1.143 2.447 2.436l0.232 1.196c0.155 0.765 0.001 1.293-0.303 1.639s-0.801 0.554-1.439 0.554h-1.199v-1.498c0.002-0.276-0.222-0.502-0.498-0.503h-5.002c-0.277 0.001-0.5 0.226-0.498 0.503v1.498h-1.59l-0.867-4.336 0.528-0.53 0.534 0.677c0.204 0.258 0.596 0.253 0.793-0.011zM15.217 23.5h1.566l0.665 0.844-1.448 1.448-1.448-1.448zM15.307 26.516l0.339 0.34c0.098 0.098 0.226 0.147 0.354 0.147s0.257-0.049 0.355-0.147l0.339-0.34 0.697 3.484h-2.781z"></path>
</symbol>
<symbol id="icon-15646433371640837504" viewBox="0 0 32 32">
<path d="M17.998 1l-6.998 0.002c-1.099 0-2 0.892-2 2.001v7.497c-0.001 0.282 0.231 0.509 0.513 0.502 0.128-0.004 0.25-0.057 0.34-0.147l1.849-1.853h0.299v0.499c0 1.113 0.903 2.001 2.002 2.001h6.297l0.217 0.218c-1.741 0.070-3.768 0.512-6.196 2.245l-0.711 0.523c-0.164 0.019-0.803 0.087-1.609 0.12-0.459 0.019-0.943 0.022-1.344-0.008-0.489-0.036-0.735-0.115-0.797-0.151l-0.453-0.262 0.239-0.414c0.138-0.238 0.057-0.544-0.181-0.683l-7.711-4.521c-0.087-0.052-0.187-0.077-0.288-0.070-0.262 0.019-0.464 0.236-0.465 0.498v12.502c0 0.163 0.080 0.316 0.214 0.409l2.208 1.551c0.24 0.168 0.573 0.095 0.72-0.159l0.132-0.229 0.752 0.924c-0.156 0.801 0.195 1.657 0.965 2.102 0.359 0.207 0.747 0.296 1.133 0.268-0.154 0.822 0.213 1.665 0.966 2.1 0.519 0.299 1.108 0.346 1.637 0.165 0.105 0.536 0.443 1.036 0.962 1.335 0.753 0.434 1.667 0.333 2.304-0.213 0.169 0.349 0.437 0.641 0.796 0.848 0.636 0.367 1.38 0.354 1.997 0.003l0.234 0.132c0.955 0.552 2.182 0.218 2.731-0.734 0.207-0.359 0.292-0.763 0.265-1.129 0.812 0.154 1.667-0.214 2.102-0.968 0.246-0.426 0.32-0.896 0.236-1.348 0.683-0.009 1.333-0.37 1.697-1 0.207-0.358 0.292-0.745 0.263-1.131 0.828 0.154 1.669-0.217 2.104-0.969 0.198-0.343 0.283-0.726 0.265-1.096l1.357-0.821 0.079 0.297c0.078 0.292 0.396 0.449 0.676 0.332l2.897-1.207c0.187-0.077 0.309-0.259 0.31-0.462v-11.5c-0.001-0.282-0.235-0.507-0.517-0.498-0.053 0.001-0.105 0.011-0.155 0.029l-5.743 2.081c-0.243 0.088-0.379 0.347-0.313 0.598l0.156 0.583c-0.488 0.045-0.97 0.029-1.428 0.004v-6.295c0-1.109-0.901-1.999-2-1.999l-1-0.001v-0.496c0-1.121-0.903-2.004-2.002-2.004zM17.998 2c0.555-0 1.001 0.44 1.001 1.003v3.998c0 0.549-0.438 1-1.001 1h-6.507c-0.133 0-0.261 0.053-0.354 0.147l-1.137 1.145v-6.29c0-0.549 0.437-1 1-1zM12.5 4.5c-0.276 0-0.5 0.224-0.5 0.5s0.224 0.5 0.5 0.5c0.276 0 0.5-0.224 0.5-0.5s-0.224-0.5-0.5-0.5zM14.5 4.5c-0.276 0-0.5 0.224-0.5 0.5s0.224 0.5 0.5 0.5c0.276 0 0.5-0.224 0.5-0.5s-0.224-0.5-0.5-0.5zM16.5 4.5c-0.276 0-0.5 0.224-0.5 0.5s0.224 0.5 0.5 0.5c0.276 0 0.5-0.224 0.5-0.5s-0.224-0.5-0.5-0.5zM20.787 12.713c0.254-0.004 0.499 0.004 0.736 0.016l0.624 0.626c0.090 0.091 0.212 0.143 0.34 0.146 0.282 0.008 0.514-0.219 0.513-0.501v-0.199c0.57 0.030 1.13 0.036 1.689-0.030l2.079 7.762-1.4 0.848c-0.124-0.195-0.289-0.396-0.596-0.602-1.278-0.738-2.449-1.415-3.63-2.097 0.571-0.137 1.124-0.427 1.424-0.954 0.199-0.334-0.042-0.759-0.432-0.757-0.184 0-0.352 0.101-0.439 0.263-0.118 0.207-0.403 0.389-0.819 0.483-0.425 0.096-0.911 0.095-1.408-0.004l-1.305-0.754c-0.535-0.309-0.984-0.368-1.377-0.284-0.343 0.073-0.657 0.269-0.893 0.384-0.963 0.472-2.715 1.469-2.721 1.473-0.563 0.31-1.135 0.25-1.446-0.174-0.321-0.437-0.237-1.062 0.214-1.395l2.96-2.186c2.351-1.676 4.287-2.046 5.887-2.064zM8.907 15.052l0.453 0.262c0.36 0.208 0.881 0.263 1.222 0.288 0.462 0.034 0.976 0.028 1.458 0.008 0.020-0.001 0.032-0.004 0.052-0.004l-0.746 0.55c-0.894 0.659-1.074 1.91-0.424 2.794 0.652 0.887 1.805 0.973 2.738 0.46 0 0 1.78-1.012 2.672-1.449 0.306-0.15 0.459-0.264 0.661-0.307 0.096-0.026 0.307-0.035 0.668 0.174 2.175 1.255 4.348 2.511 6.521 3.765 0.47 0.272 0.648 0.879 0.366 1.366-0.274 0.475-0.879 0.647-1.366 0.365-0.866-0.504-1.733-0.999-2.599-1.499-0.087-0.052-0.177-0.074-0.277-0.067-0.495 0.032-0.656 0.686-0.225 0.932 0.588 0.338 1.171 0.676 1.758 1.016 0.468 0.287 0.613 0.881 0.343 1.349-0.281 0.487-0.896 0.64-1.365 0.369-0.737-0.425-1.525-0.88-2.167-1.251-0.087-0.052-0.175-0.072-0.276-0.065-0.5 0.031-0.653 0.681-0.222 0.934 0.58 0.334 1.159 0.667 1.738 1.002 0.463 0.273 0.637 0.879 0.357 1.363-0.281 0.487-0.896 0.636-1.365 0.365-0.867-0.501-1.732-1-2.6-1.5-0.519-0.298-1.108-0.344-1.637-0.163-0.108-0.549-0.441-1.037-0.96-1.336-0.426-0.246-0.898-0.32-1.35-0.237-0.009-0.683-0.367-1.333-0.998-1.697-0.359-0.207-0.757-0.291-1.134-0.264 0.163-0.795-0.212-1.669-0.965-2.104-0.952-0.55-2.183-0.22-2.732 0.732l-1.024 1.774-0.675-0.829zM8.171 21.204c0.191-0.013 0.387 0.025 0.569 0.131 0.477 0.275 0.648 0.88 0.366 1.367l-1.253 2.169c-0.285 0.485-0.894 0.631-1.363 0.36s-0.649-0.876-0.367-1.363l1.251-2.167c0.176-0.305 0.478-0.476 0.797-0.497zM10.272 23.569c0.191-0.013 0.384 0.027 0.566 0.133 0.474 0.274 0.648 0.879 0.366 1.366-0.416 0.721-0.833 1.443-1.249 2.164-0.281 0.487-0.88 0.648-1.367 0.366s-0.648-0.879-0.366-1.366c0.417-0.721 0.834-1.443 1.25-2.164 0.176-0.305 0.481-0.478 0.8-0.499zM12.614 25.501c0.191-0.013 0.39 0.030 0.572 0.136 0.483 0.279 0.648 0.879 0.366 1.366-0.333 0.577-0.665 1.153-0.998 1.73-0.281 0.487-0.88 0.648-1.367 0.366s-0.646-0.879-0.365-1.366l0.998-1.73c0.177-0.304 0.476-0.48 0.794-0.501zM15.213 27.001c0.191-0.013 0.39 0.031 0.572 0.137 0.477 0.275 0.648 0.879 0.366 1.366l-0.5 0.866c-0.281 0.487-0.877 0.644-1.364 0.362s-0.649-0.875-0.368-1.362l0.5-0.866c0.176-0.305 0.485-0.482 0.794-0.503zM17.285 28.002l0.232 0.134c0.476 0.275 0.647 0.879 0.365 1.366s-0.896 0.637-1.364 0.366l0.499-0.864c0.183-0.317 0.27-0.659 0.268-1.002z"></path>
</symbol>
<symbol id="icon-18357832801640837502" viewBox="0 0 32 32">
<path d="M16 1c-0.916 0.001-1.512 0.093-1.96 0.317-0.514 0.257-0.708 0.643-0.849 0.963s-0.234 0.578-0.484 0.864-0.673 0.614-1.513 0.952c-0.84 0.338-1.373 0.394-1.753 0.361s-0.629-0.156-0.953-0.288c-0.393-0.16-0.778-0.259-1.28-0.103s-1.013 0.522-1.724 1.218-1.089 1.199-1.255 1.697c-0.179 0.537-0.043 0.956 0.085 1.281s0.246 0.57 0.272 0.948-0.041 0.908-0.395 1.738c-0.091 0.213-0.179 0.389-0.267 0.55h-2.424c-0.276-0.001-0.501 0.222-0.502 0.498v7.5c-0.001 0.278 0.224 0.503 0.502 0.502h2.112c0.184 0.25 0.377 0.578 0.578 1.050 0.354 0.83 0.421 1.36 0.395 1.738s-0.145 0.623-0.272 0.948c-0.127 0.326-0.264 0.744-0.085 1.281 0.166 0.498 0.544 1.002 1.255 1.697s1.222 1.062 1.724 1.218c0.502 0.156 0.887 0.058 1.28-0.103 0.325-0.132 0.573-0.255 0.953-0.288s0.913 0.023 1.753 0.361c0.84 0.338 1.263 0.666 1.513 0.952s0.343 0.544 0.484 0.864c0.141 0.32 0.334 0.706 0.849 0.963 0.448 0.224 1.044 0.316 1.96 0.317 0.916-0.001 1.512-0.093 1.96-0.317 0.514-0.257 0.708-0.643 0.849-0.963s0.234-0.578 0.484-0.864 0.673-0.614 1.513-0.952c0.84-0.338 1.373-0.394 1.753-0.361s0.629 0.156 0.953 0.288c0.393 0.16 0.778 0.259 1.28 0.103s1.013-0.522 1.724-1.218 1.089-1.199 1.255-1.697c0.179-0.537 0.043-0.956-0.085-1.281s-0.246-0.57-0.272-0.948 0.041-0.908 0.395-1.738c0.201-0.471 0.394-0.8 0.578-1.050h2.112c0.278 0.001 0.503-0.224 0.502-0.502v-7.5c-0.001-0.276-0.226-0.499-0.502-0.498h-2.424c-0.087-0.161-0.176-0.337-0.267-0.55-0.354-0.83-0.421-1.36-0.395-1.738s0.145-0.623 0.272-0.948c0.127-0.326 0.264-0.744 0.085-1.281-0.166-0.498-0.544-1.002-1.255-1.697s-1.222-1.062-1.724-1.218c-0.502-0.156-0.887-0.058-1.28 0.103-0.325 0.132-0.573 0.255-0.953 0.288s-0.913-0.023-1.753-0.361c-0.84-0.338-1.263-0.666-1.513-0.952s-0.343-0.544-0.484-0.864c-0.141-0.32-0.334-0.706-0.849-0.963-0.448-0.224-1.044-0.316-1.96-0.317zM16 2.003c0.841 0.002 1.302 0.101 1.514 0.207 0.181 0.091 0.261 0.203 0.38 0.473s0.274 0.691 0.646 1.118 0.951 0.846 1.893 1.226c0.942 0.379 1.649 0.478 2.215 0.429s0.97-0.247 1.244-0.358c0.214-0.087 0.367-0.148 0.605-0.074 0.231 0.062 0.658 0.333 1.317 0.979s0.93 1.061 1.008 1.296c0.078 0.235 0.002 0.426-0.066 0.602-0.108 0.275-0.3 0.678-0.34 1.243s0.072 1.268 0.469 2.2c0.026 0.061 0.054 0.107 0.080 0.165-0.258 0.019-0.464 0.221-0.464 0.5-0.598-0.042-1.255-0.16-2.011-0.27-1.611-3.208-4.898-5.237-8.49-5.236-3.592-0.001-6.879 2.029-8.49 5.236-0.756 0.109-1.413 0.227-2.011 0.27 0-0.279-0.206-0.481-0.464-0.5 0.026-0.058 0.054-0.104 0.080-0.165 0.397-0.932 0.508-1.635 0.469-2.2s-0.232-0.969-0.34-1.243c-0.069-0.176-0.144-0.367-0.066-0.602s0.348-0.65 1.008-1.296c0.66-0.646 1.087-0.917 1.317-0.979 0.238-0.074 0.392-0.013 0.605 0.074 0.274 0.112 0.679 0.309 1.244 0.358s1.273-0.050 2.215-0.429c0.942-0.379 1.52-0.798 1.893-1.226s0.527-0.848 0.646-1.118c0.119-0.27 0.199-0.382 0.38-0.473 0.212-0.106 0.673-0.204 1.514-0.207zM16 7.501c2.984 0 5.729 1.564 7.262 4.083-0.53-0.050-1.115-0.083-1.762-0.083-2.687 0-4.049 1.763-4.853 2.921-0.279 0.191-0.477 0.388-0.647 0.589-0.17-0.201-0.369-0.398-0.647-0.589-0.803-1.158-2.165-2.921-4.853-2.921-0.646 0-1.231 0.034-1.762 0.083 1.533-2.519 4.278-4.083 7.262-4.083zM16 8.502c-0.291 0.006-0.5 0.221-0.5 0.498v1c0 0.333 0.25 0.501 0.5 0.501s0.5-0.168 0.5-0.501v-1c0-0.277-0.209-0.493-0.5-0.498zM13.296 9.294c-0.452-0.004-0.67 0.545-0.358 0.854l0.709 0.705c0.493 0.459 1.165-0.232 0.709-0.705l-0.709-0.709c-0.094-0.097-0.216-0.146-0.351-0.146zM18.704 9.294c-0.135 0-0.256 0.049-0.351 0.146l-0.709 0.709c-0.456 0.473 0.216 1.164 0.709 0.705l0.709-0.705c0.312-0.309 0.094-0.858-0.358-0.854zM10.5 12.501c1.583 0 2.587 0.739 3.271 1.511-1.282 0.119-2.271 1.247-2.271 2.587-0 0.311 0.036 0.611 0.107 0.9h-1.108c-0.682-0.015-0.682 1.015 0 1h2.252c0.424 0 0.749 0.344 0.749 0.749 0 0.409-0.325 0.753-0.749 0.753-0.25 0-2.259-0-3.252 0-0.875 0-1.67-0.332-2.399-0.697-0.564-0.282-1.127-0.605-1.602-0.732v-5.564c1.427-0.087 2.82-0.506 5.001-0.506zM21.5 12.501c2.181 0 3.574 0.419 5.001 0.506v5.564c-0.475 0.127-1.038 0.45-1.602 0.732-0.729 0.365-1.524 0.697-2.399 0.697-0.993-0-3.002 0-3.252 0-0.424 0-0.749-0.344-0.749-0.753 0-0.405 0.325-0.749 0.749-0.749h2.252c0.682 0.015 0.682-1.015 0-1h-1.108c0.071-0.289 0.108-0.589 0.107-0.9 0-1.34-0.989-2.468-2.271-2.587 0.684-0.772 1.688-1.511 3.271-1.511zM5.485 19.625c0.309 0.127 0.648 0.313 1.165 0.572 0.324 0.162 0.687 0.329 1.075 0.47 1.672 2.967 4.832 4.834 8.274 4.834s6.603-1.867 8.274-4.834c0.388-0.14 0.752-0.308 1.075-0.47 0.517-0.259 0.856-0.446 1.165-0.572 0.072 0.242 0.258 0.374 0.484 0.375h0.204c-0.108 0.197-0.214 0.414-0.318 0.658-0.397 0.932-0.508 1.635-0.469 2.2s0.232 0.969 0.34 1.243c0.069 0.176 0.144 0.367 0.066 0.602s-0.348 0.65-1.008 1.296c-0.66 0.646-1.087 0.917-1.317 0.979-0.238 0.074-0.392 0.013-0.605-0.074-0.274-0.112-0.679-0.309-1.244-0.358s-1.273 0.049-2.215 0.429c-0.942 0.379-1.52 0.798-1.893 1.226s-0.527 0.848-0.646 1.118c-0.119 0.27-0.199 0.382-0.38 0.473-0.212 0.106-0.673 0.204-1.514 0.207-0.841-0.002-1.302-0.101-1.514-0.207-0.181-0.091-0.261-0.203-0.38-0.473s-0.274-0.691-0.646-1.118-0.951-0.846-1.893-1.226c-0.942-0.379-1.649-0.478-2.215-0.429s-0.97 0.247-1.244 0.358c-0.214 0.087-0.367 0.148-0.605 0.074-0.231-0.062-0.658-0.333-1.317-0.979s-0.93-1.061-1.008-1.296c-0.078-0.235-0.002-0.426 0.066-0.602 0.108-0.275 0.3-0.678 0.34-1.243s-0.072-1.268-0.469-2.2c-0.104-0.244-0.21-0.461-0.318-0.658h0.204c0.226-0.001 0.412-0.133 0.484-0.375zM13.817 20.638c1.008 0.839 1.962 1.311 1.962 1.311 0.070 0.035 0.145 0.052 0.221 0.053s0.151-0.019 0.221-0.053c0 0 0.954-0.472 1.962-1.311 0.295 0.228 0.667 0.364 1.065 0.364h3.252c0.131 0 0.26-0.007 0.387-0.019-1.576 2.178-4.131 3.518-6.887 3.518s-5.311-1.339-6.887-3.518c0.127 0.011 0.255 0.019 0.387 0.019h3.252c0.399 0 0.77-0.136 1.065-0.364z"></path>
</symbol>
<symbol id="icon-13389625601640837502" viewBox="0 0 32 32">
<path d="M7.002 1c-3.308 0-6.002 2.694-6.002 6.002 0 2.989 2.197 5.481 5.078 5.926-0.058 0.29-0.080 0.63-0.076 1.072-0.006 0.748 0.067 1.249 0.254 1.609 0.197 0.381 0.503 0.554 0.798 0.679 0.248 0.105 0.423 0.167 0.623 0.34s0.438 0.474 0.69 1.096 0.293 1.003 0.27 1.267c-0.023 0.264-0.11 0.431-0.214 0.683-0.125 0.305-0.21 0.639-0.081 1.052s0.423 0.808 0.959 1.351c0.032 0.032 0.058 0.058 0.089 0.089-0.546 0.208-1.025 0.34-1.406 0.34 0.001-0.276-0.222-0.501-0.498-0.502h-5.987c-0.276 0.001-0.499 0.226-0.498 0.502v7.496c0.001 0.275 0.223 0.497 0.498 0.498h5.987c0.275-0.001 0.497-0.223 0.498-0.498h0.517c0.597 0 2.52 0.244 4.341 0.494 0.91 0.125 1.811 0.253 2.551 0.348s1.289 0.158 1.627 0.158c0.854 0 1.747-0.502 2.75-1.181s2.077-1.569 3.074-2.455c1.989-1.767 3.639-3.499 3.671-3.532 0.651-0.65 0.585-1.543 0.162-2.162-0.095-0.14-0.209-0.258-0.341-0.361 0.16-0.253 0.25-0.489 0.274-0.731 0.037-0.37-0.092-0.659-0.178-0.871s-0.149-0.376-0.155-0.635c-0.006-0.259 0.051-0.626 0.292-1.192 0.263-0.617 0.506-0.919 0.712-1.093s0.394-0.238 0.65-0.355c0.257-0.117 0.581-0.29 0.797-0.73 0.18-0.368 0.267-0.903 0.273-1.701-0.006-0.625-0.055-1.070-0.168-1.423l0.204-0.205 0.741 0.742c0.303 0.303 0.822 0.11 0.853-0.317l0.367-4.756c0.025-0.308-0.23-0.566-0.537-0.541l-3.871 0.308c0.023-0.125 0.034-0.26 0.016-0.415-0.061-0.496-0.378-0.953-1.045-1.605-0.545-0.534-0.942-0.828-1.355-0.956s-0.746-0.043-1.052 0.082c-0.252 0.103-0.421 0.191-0.687 0.214s-0.654-0.019-1.278-0.27c-0.625-0.252-0.925-0.49-1.1-0.69s-0.237-0.375-0.347-0.624c-0.11-0.249-0.271-0.574-0.701-0.789-0.386-0.193-0.875-0.261-1.64-0.255s-1.277 0.094-1.635 0.28c-0.439 0.229-0.581 0.55-0.687 0.801s-0.165 0.432-0.336 0.635c-0.171 0.203-0.472 0.447-1.093 0.709-0.402 0.17-0.692 0.245-0.928 0.274-0.781-2.48-3.092-4.198-5.723-4.198zM6.99 3.491c0.284-0.006 0.515 0.226 0.51 0.51v3.001c-0.001 0.132-0.054 0.258-0.147 0.351l-1.499 1.502c-0.473 0.493-1.201-0.237-0.708-0.709l1.354-1.354v-2.79c-0.005-0.276 0.214-0.504 0.49-0.51zM17.41 3.499c0.748 0 1.045 0.078 1.185 0.147 0.129 0.064 0.173 0.164 0.232 0.299 0.087 0.199 0.212 0.538 0.51 0.879s0.754 0.67 1.48 0.963c0.727 0.293 1.285 0.373 1.736 0.334s0.774-0.2 0.976-0.282c0.184-0.063 0.232-0.098 0.381-0.052s0.458 0.229 0.952 0.713c0.604 0.592 0.732 0.869 0.75 1.015 0.015 0.13-0.052 0.257-0.122 0.435-0.276 0.169-0.322 0.551-0.093 0.78l0.742 0.741-2.873 2.871c-0.646-2.245-2.564-3.953-4.938-4.284-2.715-0.379-5.345 1.135-6.382 3.672s-0.22 5.464 1.982 7.095c2.071 1.534 4.878 1.561 6.972 0.118l0.493 0.43c0.197 0.171 0.495 0.159 0.681-0.024l5.9-5.912c0.015 0.16 0.022 0.346 0.023 0.568-0.008 0.718-0.080 1.067-0.173 1.258-0.061 0.125-0.115 0.173-0.311 0.263s-0.533 0.207-0.878 0.498-0.683 0.743-0.989 1.462c-0.281 0.66-0.383 1.18-0.373 1.612s0.14 0.763 0.23 0.985c0.090 0.222 0.119 0.309 0.11 0.395-0.037 0.203-0.147 0.319-0.243 0.465-0.328-0.022-0.665 0.040-0.979 0.203l-4.012 1.855h-1.397c0.011-0.082 0.016-0.164 0.016-0.249 0-0.961-0.771-1.749-1.749-1.749-2.264 0.004-1.992 0.002-4.267 0-0.781 0-1.711 0.372-2.579 0.741-0.116-0.099-0.247-0.218-0.396-0.369-0.486-0.492-0.67-0.801-0.716-0.948-0.028-0.090-0.028-0.172 0.055-0.373s0.245-0.524 0.284-0.975c0.039-0.451-0.046-1.006-0.34-1.73s-0.621-1.18-0.964-1.477c-0.343-0.296-0.687-0.417-0.889-0.502-0.146-0.062-0.229-0.093-0.296-0.222-0.080-0.154-0.149-0.467-0.144-1.147-0.006-0.681 0.064-0.995 0.144-1.148 0.050-0.097 0.094-0.132 0.296-0.218s0.546-0.206 0.889-0.502 0.67-0.755 0.964-1.479c0.294-0.724 0.379-1.277 0.34-1.728s-0.202-0.778-0.284-0.979c-0.061-0.149-0.095-0.243-0.055-0.372 0.046-0.147 0.23-0.457 0.716-0.949s0.806-0.688 0.941-0.727c0.148-0.049 0.202-0.015 0.38 0.044 0.203 0.079 0.53 0.234 0.982 0.266s1.009-0.060 1.73-0.365c0.722-0.305 1.174-0.639 1.466-0.985s0.406-0.69 0.49-0.89c0.084-0.2 0.141-0.253 0.229-0.299 0.136-0.078 0.487-0.164 1.181-0.17zM29.957 8.545l-0.24 3.089-0.325-0.325c-0.195-0.196-0.513-0.196-0.708 0l-6.984 7.002-5.142-4.462c-0.149-0.129-0.36-0.158-0.539-0.074l-3.34 1.56c-0.205-0.74-0.236-1.527-0.083-2.3l4.283-1.946 4.551 3.854c0.198 0.168 0.491 0.156 0.676-0.026l5.098-5.090c0.197-0.195 0.197-0.514 0-0.709l-0.328-0.328zM25.262 21.938c0.241 0.007 0.468 0.114 0.587 0.296 0.182 0.267 0.225 0.623-0.053 0.9 0 0-1.662 1.747-3.617 3.484-0.978 0.868-2.029 1.732-2.971 2.369s-1.808 1.012-2.189 1.012c-0.177 0-0.771-0.058-1.502-0.151s-1.627-0.218-2.539-0.343c-1.823-0.25-3.647-0.506-4.478-0.506h-0.517v-5.496c0.91 0 1.814-0.415 2.69-0.79s1.727-0.712 2.311-0.712c2.275 0.002 2.003 0.004 4.267 0 0.424 0 0.749 0.342 0.749 0.749s-0.325 0.749-0.749 0.749h-3.266c-0.667 0-0.667 1.001 0 1.001h3.266c0.476 0 0.913-0.191 1.23-0.504 0.011 0.001 0.017 0.004 0.029 0.004h1.979c0.073 0.001 0.145-0.013 0.211-0.044l4.134-1.914c0.134-0.076 0.284-0.108 0.429-0.105z"></path>
</symbol>
<symbol id="icon-8151034451640837499" viewBox="0 0 32 32">
<path d="M3.001 1c-1.099 0-2.001 0.882-2.001 2.001v3.001c0 1.117 0.902 1.995 2.001 1.995h4.292l0.932 0.935c-0.147 0.496-0.224 1.023-0.224 1.567v0.767c-0.595 0.346-1 0.992-1 1.733 0 1.108 0.902 2.001 2.001 2.001h0.457c0.35 0.707 0.869 1.302 1.541 1.75v0.748c-0.019 0.001-0.037 0.002-0.055 0.006-0.052 0.006-0.108 0.021-0.158 0.044l-1.215 0.566c-0.178-0.074-0.368-0.113-0.574-0.113h-0.498v-0.502c-0.001-0.276-0.226-0.499-0.502-0.498h-3.997c-0.276-0.001-0.501 0.222-0.502 0.498v0.501h-0.498c-0.832 0-1.501 0.677-1.501 1.499l-0.002 2.883c-0.304 0.273-0.498 0.673-0.498 1.116 0 0.387 0.142 0.735 0.382 1.001-0.24 0.265-0.382 0.612-0.382 0.999s0.142 0.735 0.382 1.001c-0.24 0.265-0.382 0.611-0.382 0.998 0 0.443 0.196 0.847 0.5 1.121v0.883c0 0.822 0.667 1.498 1.501 1.498h5.997c0.447 0 0.848-0.196 1.122-0.5h2.671l0.355 0.355c0.195 0.194 0.51 0.194 0.705 0l0.357-0.357h5.792c0.839 0 1.499-0.676 1.499-1.498v-1.898c0.774-0.070 1.507-0.645 1.94-1.090l3.917-3.743c0.269-0.279 0.407-0.628 0.428-0.98 1.242-0.198 2.261-1.048 2.595-2.295l0.517-1.93c0.428-1.597-0.506-3.244-2.122-3.677 0.213-0.794-0.255-1.622-1.060-1.838s-1.625 0.269-1.838 1.063l-0.904 3.381c-0.004 0.013-0.090 0.296-0.243 0.66-0.145 0.346-0.342 0.718-0.538 0.938-0.373 0-0.747 0.138-1.044 0.4l-2.407 1.881c-0.521-0.363-1.197-0.76-1.73-1.017l-2.797-1.309c-0.066-0.031-0.138-0.047-0.211-0.047l-0.004-0.751c0.66-0.429 1.194-1.041 1.544-1.749h0.456c1.098 0 2.001-0.893 2.001-2.001 0-0.739-0.406-1.386-0.999-1.732v-0.768c0-3.038-2.443-5.5-5.499-5.5-1.338-0-2.554 0.465-3.503 1.252v-3.251c0-1.117-0.903-2.001-2.002-2.001zM3.001 2.001h4.997c0.563 0 1.002 0.447 1.002 1v5.288l-1.146-1.144c-0.094-0.093-0.222-0.145-0.354-0.145h-4.499c-0.547 0-1-0.437-1-1v-3c0-0.553 0.437-1 1-1zM3.5 4c-0.276 0-0.5 0.224-0.5 0.5s0.224 0.5 0.5 0.5c0.276 0 0.5-0.224 0.5-0.5s-0.224-0.5-0.5-0.5zM5.5 4c-0.276 0-0.5 0.224-0.5 0.5s0.224 0.5 0.5 0.5c0.276 0 0.5-0.224 0.5-0.5s-0.224-0.5-0.5-0.5zM7.5 4c-0.276 0-0.5 0.224-0.5 0.5s0.224 0.5 0.5 0.5c0.276 0 0.5-0.224 0.5-0.5s-0.224-0.5-0.5-0.5zM27.5 8c-0.291 0.006-0.5 0.221-0.5 0.498v1c0 0.333 0.25 0.501 0.5 0.501s0.5-0.168 0.5-0.501v-1c0-0.277-0.209-0.493-0.5-0.498zM24.796 8.792c-0.452-0.004-0.67 0.545-0.358 0.854l0.709 0.705c0.493 0.459 1.165-0.232 0.709-0.705l-0.709-0.709c-0.094-0.097-0.216-0.146-0.351-0.146zM30.204 8.792c-0.135 0-0.256 0.049-0.351 0.146l-0.709 0.709c-0.456 0.473 0.216 1.164 0.709 0.705l0.709-0.705c0.312-0.309 0.094-0.858-0.358-0.854zM11.767 10.66c0.531 0.201 1.058 0.34 1.736 0.34 0.547 0 1.172-0.108 1.732-0.339 0.368 0.663 1.017 1.126 1.766 1.286v1.083c0 1.928-1.567 3.469-3.498 3.469-1.95 0-3.503-1.565-3.503-3.469v-1.083c0.739-0.15 1.424-0.643 1.767-1.287zM9.002 11.998l0.002 1.032c0 0.333 0.034 0.656 0.104 0.969h-0.105c-0.558 0-1-0.454-1-1.001s0.442-1 1-1zM18.001 11.998c0.558 0.001 1 0.454 1 1s-0.443 1-1.001 1h-0.105c0.069-0.312 0.106-0.635 0.106-0.968zM12 17.245c0.471 0.166 0.975 0.256 1.503 0.256s1.026-0.090 1.496-0.255l0.001 1.047c-0.401 0.402-0.802 0.804-1.204 1.206h-0.587l-1.209-1.211zM24.184 18.594c0.131-0.004 0.248 0.044 0.342 0.138l2.126 2.126c0.177 0.177 0.198 0.489-0.018 0.713l-3.899 3.727c-0.549 0.549-1.048 0.838-1.541 0.813-0.468-0.024-0.921-0.376-1.371-0.826-0.468-0.464-1.18 0.226-0.709 0.708 0.514 0.52 0.96 0.817 1.385 0.98v2.028c0 0.269-0.212 0.502-0.498 0.502l-4.797-0.002 0.149-0.147c0.113-0.112 0.167-0.27 0.145-0.428l-0.961-6.748 0.471-0.462 0.14 0.14c0.212 0.212 0.561 0.191 0.746-0.044l1.927-2.407 0.76 0.355c0.544 0.262 1.505 0.845 1.856 1.129 0.18 0.146 0.437 0.15 0.62 0.008l2.73-2.134c0.127-0.111 0.268-0.164 0.398-0.167zM10.895 18.602l1.397 1.396-0.751 0.751-1.043-1.304c-0.008-0.21-0.059-0.409-0.145-0.589zM16.106 18.604l0.777 0.363-1.427 1.784-0.751-0.751zM3.001 19h0.498v1.001c0.001 0.276 0.226 0.499 0.502 0.498h3.997c0.276 0.001 0.501-0.222 0.502-0.498v-1h0.498c0.286 0 0.503 0.212 0.503 0.498v10.003c0 0.272-0.217 0.498-0.503 0.498h-5.997c-0.266 0-0.501-0.212-0.5-0.498l-0.001-0.501h0.998c0.822 0 1.502-0.67 1.502-1.503 0-0.387-0.143-0.734-0.383-0.999 0.239-0.266 0.383-0.614 0.383-1.001 0-0.536-0.274-0.999-0.693-1.264 0.124-0.218 0.193-0.467 0.193-0.736 0-0.833-0.68-1.498-1.502-1.498h-0.498v-2.501c0-0.274 0.215-0.499 0.501-0.499zM13.207 20.5h0.587l0.506 0.507-0.797 0.781-0.792-0.792zM10.501 21.047l0.611 0.764c0.185 0.232 0.531 0.253 0.742 0.044l0.151-0.151 0.436 0.441-0.938 6.78c-0.024 0.157 0.028 0.315 0.14 0.428l0.147 0.147h-1.29zM13.338 22.966c0.103 0.036 0.201 0.035 0.294 0.007l0.836 5.852-0.969 0.967-0.97-0.967zM2.501 23h0.497c0.286 0 0.502 0.226 0.502 0.498s-0.216 0.502-0.502 0.502h-0.497c-0.286 0-0.502-0.23-0.502-0.502s0.216-0.498 0.502-0.498zM3.498 25c0.286-0 0.502 0.226 0.502 0.498s-0.216 0.502-0.502 0.502h-0.997c-0.286 0-0.502-0.23-0.502-0.502s0.215-0.495 0.501-0.497c0.334 0 0.665-0.001 0.998-0.001zM2.498 27.001h1.003c0.286 0.002 0.5 0.226 0.5 0.497 0 0.272-0.216 0.502-0.502 0.502h-0.997c-0.286 0-0.502-0.23-0.502-0.502 0-0.271 0.214-0.495 0.498-0.497z"></path>
</symbol>
</defs>
</svg>
