<svg aria-hidden="true" style="position: absolute; width: 0; height: 0; overflow: hidden;" version="1.1" xmlns="http://www.w3.org/2000/svg" xmlns:xlink="http://www.w3.org/1999/xlink">
<defs>
<symbol id="icon-e_email_letter_mail_icon" viewBox="0 0 32 32">
<path d="M28 13c-0.552 0-1 0.448-1 1v0 8c0 0.552-0.448 1-1 1v0h-20c-0.552 0-1-0.448-1-1v0-8c0-0.552-0.448-1-1-1s-1 0.448-1 1v0 8c0.001 0.828 0.337 1.578 0.88 2.12l0 0c0.542 0.543 1.292 0.879 2.12 0.88h20c0.828-0.001 1.578-0.337 2.12-0.88l0-0c0.543-0.542 0.879-1.292 0.88-2.12v-8c0-0.552-0.448-1-1-1v0z"></path>
<path d="M15.4 18.8c0.165 0.125 0.374 0.2 0.6 0.2s0.435-0.075 0.602-0.202l-0.003 0.002 11.81-8.86c0.243-0.184 0.398-0.473 0.398-0.798 0-0.157-0.036-0.305-0.101-0.438l0.003 0.006c-0.157-0.32-0.354-0.594-0.59-0.83v0c-0.542-0.543-1.292-0.879-2.12-0.88h-20c-0.828 0.001-1.578 0.337-2.12 0.88l-0 0c-0.236 0.236-0.433 0.51-0.582 0.812l-0.008 0.018c-0.062 0.126-0.098 0.275-0.098 0.432 0 0.325 0.155 0.614 0.395 0.797l0.002 0.002zM6 9h20c0.042-0.007 0.091-0.011 0.14-0.011s0.098 0.004 0.145 0.012l-0.005-0.001-10.28 7.75-10.28-7.75c0.042-0.007 0.091-0.011 0.14-0.011s0.098 0.004 0.145 0.012l-0.005-0.001z"></path>
</symbol>
<symbol id="icon-local_phone_icon" viewBox="0 0 32 32">
<path d="M8.833 14.393c1.92 3.773 5.007 6.86 8.787 8.78l2.933-2.94c0.367-0.367 0.893-0.473 1.353-0.327 1.493 0.493 3.1 0.76 4.76 0.76 0.74 0 1.333 0.593 1.333 1.333v4.667c0 0.74-0.593 1.333-1.333 1.333-12.52 0-22.667-10.147-22.667-22.667 0-0.74 0.6-1.333 1.333-1.333h4.667c0.74 0 1.333 0.593 1.333 1.333 0 1.66 0.267 3.267 0.76 4.76 0.147 0.46 0.040 0.987-0.327 1.353l-2.933 2.947z"></path>
</symbol>
<symbol id="icon-instagram_icon" viewBox="0 0 32 32">
<path d="M15.915 9.425c-3.951 0-7.224 3.217-7.224 7.224s3.217 7.224 7.224 7.224 7.224-3.273 7.224-7.224-3.273-7.224-7.224-7.224zM15.915 21.277c-2.54 0-4.628-2.088-4.628-4.628s2.088-4.628 4.628-4.628 4.628 2.088 4.628 4.628-2.088 4.628-4.628 4.628z"></path>
<path d="M25.058 9.256c0 0.904-0.733 1.637-1.637 1.637s-1.637-0.733-1.637-1.637c0-0.904 0.733-1.637 1.637-1.637s1.637 0.733 1.637 1.637z"></path>
<path d="M27.654 5.023c-1.467-1.524-3.556-2.314-5.926-2.314h-11.626c-4.91 0-8.183 3.273-8.183 8.183v11.57c0 2.427 0.79 4.515 2.37 6.039 1.524 1.467 3.556 2.201 5.869 2.201h11.513c2.427 0 4.459-0.79 5.926-2.201 1.524-1.467 2.314-3.556 2.314-5.982v-11.626c0-2.37-0.79-4.402-2.258-5.87zM27.429 22.519c0 1.75-0.621 3.16-1.637 4.12s-2.427 1.467-4.12 1.467h-11.513c-1.693 0-3.104-0.508-4.12-1.467-1.016-1.016-1.524-2.427-1.524-4.176v-11.57c0-1.693 0.508-3.104 1.524-4.12 0.959-0.959 2.427-1.467 4.12-1.467h11.626c1.693 0 3.104 0.508 4.12 1.524 0.959 1.016 1.524 2.427 1.524 4.064v11.626z"></path>
</symbol>
<symbol id="icon-vk-svgrepo-com" viewBox="0 0 32 32">
<path d="M3.49 8.904c0.127-0.15 0.313-0.237 0.51-0.237h4.693c0.327 0 0.605 0.237 0.658 0.559 0.193 1.177 0.828 3.45 2.32 5.584 0.211 0.302 0.137 0.717-0.164 0.928s-0.717 0.137-0.928-0.164c-1.425-2.038-2.134-4.181-2.436-5.573h-3.32c0.572 2.317 2.14 6.253 4.506 9.226 1.297 1.63 2.705 2.675 3.923 3.304 1.238 0.639 2.233 0.825 2.697 0.801 0.017-0.001 0.034-0.001 0.051-0.001 0.216 0.005 0.478-0.054 0.673-0.213 0.169-0.138 0.375-0.421 0.375-1.057v-2.028c0-0.391 0.153-0.785 0.48-1.038 0.345-0.267 0.796-0.306 1.2-0.119 0.428 0.199 0.918 0.452 1.217 0.613 0.017 0.009 0.033 0.019 0.049 0.029 1.516 0.995 2.977 2.592 3.903 3.778 0.013 0.016 0.025 0.024 0.033 0.029s0.013 0.004 0.015 0.004h3.354c0.009 0 0.013-0.001 0.013-0.001s0.001-0.001 0.002-0.001 0.007-0.006 0.012-0.017 0.006-0.022 0.005-0.032c-0.001-0.007-0.003-0.020-0.020-0.040-0.833-1.009-1.94-2.247-2.905-3.326-0.342-0.383-0.667-0.746-0.955-1.071-0.666-0.753-0.714-1.857-0.201-2.683 1.123-1.811 2.602-4.41 3.058-6.159h-2.723c-0.002 0-0.010 0-0.026 0.011-0.017 0.012-0.039 0.036-0.056 0.073-0.95 2.144-2.952 4.79-4.41 6.119-0.408 0.372-0.956 0.431-1.399 0.174-0.415-0.24-0.647-0.699-0.647-1.187v-5.191h-3.561c0.048 0.089 0.095 0.18 0.14 0.273 0.27 0.556 0.517 1.248 0.517 1.916 0 0.286 0.002 0.718 0.005 1.222 0.007 1.318 0.017 3.129-0.005 4.116-0.008 0.368-0.313 0.66-0.681 0.652s-0.66-0.313-0.652-0.681c0.022-0.967 0.012-2.734 0.005-4.048-0.003-0.515-0.005-0.96-0.005-1.261 0-0.372-0.148-0.85-0.383-1.333-0.23-0.474-0.508-0.879-0.688-1.090-0.169-0.198-0.207-0.476-0.098-0.712s0.345-0.387 0.605-0.387h5.468c0.368 0 0.667 0.298 0.667 0.667v5.711c1.316-1.267 3.073-3.627 3.903-5.5 0.218-0.491 0.701-0.878 1.301-0.878h2.731c0.827 0 1.516 0.763 1.287 1.649-0.51 1.977-2.109 4.754-3.221 6.546-0.223 0.36-0.183 0.814 0.067 1.097 0.278 0.314 0.595 0.668 0.932 1.045 0.969 1.084 2.106 2.355 2.957 3.386 0.73 0.885 0.156 2.273-1.041 2.273h-3.354c-0.443 0-0.84-0.215-1.098-0.546-0.884-1.132-2.229-2.588-3.559-3.468-0.235-0.126-0.578-0.304-0.905-0.462v1.873c0 0.963-0.333 1.656-0.867 2.091-0.498 0.405-1.087 0.518-1.522 0.512-0.783 0.033-2.007-0.254-3.353-0.949-1.38-0.712-2.938-1.877-4.355-3.659-2.81-3.532-4.546-8.3-4.943-10.61-0.033-0.194 0.021-0.392 0.147-0.543zM18.386 20.002c0 0-0 0.001-0.001 0.003zM18.168 20.087c0 0-0 0-0 0zM18.392 15.248c-0 0-0.001-0.001-0.002-0.003 0.001 0.002 0.002 0.002 0.002 0.003z"></path>
</symbol>
</defs>
</svg>
