<svg aria-hidden="true" style="position: absolute; width: 0; height: 0; overflow: hidden;" version="1.1" xmlns="http://www.w3.org/2000/svg" xmlns:xlink="http://www.w3.org/1999/xlink">
<defs>
<symbol id="icon-e_email_letter_mail_icon" viewBox="0 0 32 32">
<path d="M28 13c-0.552 0-1 0.448-1 1v0 8c0 0.552-0.448 1-1 1v0h-20c-0.552 0-1-0.448-1-1v0-8c0-0.552-0.448-1-1-1s-1 0.448-1 1v0 8c0.001 0.828 0.337 1.578 0.88 2.12l0 0c0.542 0.543 1.292 0.879 2.12 0.88h20c0.828-0.001 1.578-0.337 2.12-0.88l0-0c0.543-0.542 0.879-1.292 0.88-2.12v-8c0-0.552-0.448-1-1-1v0z"></path>
<path d="M15.4 18.8c0.165 0.125 0.374 0.2 0.6 0.2s0.435-0.075 0.602-0.202l-0.003 0.002 11.81-8.86c0.243-0.184 0.398-0.473 0.398-0.798 0-0.157-0.036-0.305-0.101-0.438l0.003 0.006c-0.157-0.32-0.354-0.594-0.59-0.83v0c-0.542-0.543-1.292-0.879-2.12-0.88h-20c-0.828 0.001-1.578 0.337-2.12 0.88l-0 0c-0.236 0.236-0.433 0.51-0.582 0.812l-0.008 0.018c-0.062 0.126-0.098 0.275-0.098 0.432 0 0.325 0.155 0.614 0.395 0.797l0.002 0.002zM6 9h20c0.042-0.007 0.091-0.011 0.14-0.011s0.098 0.004 0.145 0.012l-0.005-0.001-10.28 7.75-10.28-7.75c0.042-0.007 0.091-0.011 0.14-0.011s0.098 0.004 0.145 0.012l-0.005-0.001z"></path>
</symbol>
<symbol id="icon-local_phone_icon" viewBox="0 0 32 32">
<path d="M8.833 14.393c1.92 3.773 5.007 6.86 8.787 8.78l2.933-2.94c0.367-0.367 0.893-0.473 1.353-0.327 1.493 0.493 3.1 0.76 4.76 0.76 0.74 0 1.333 0.593 1.333 1.333v4.667c0 0.74-0.593 1.333-1.333 1.333-12.52 0-22.667-10.147-22.667-22.667 0-0.74 0.6-1.333 1.333-1.333h4.667c0.74 0 1.333 0.593 1.333 1.333 0 1.66 0.267 3.267 0.76 4.76 0.147 0.46 0.040 0.987-0.327 1.353l-2.933 2.947z"></path>
</symbol>
<symbol id="icon-instagram_icon" viewBox="0 0 32 32">
<path d="M15.915 9.425c-3.951 0-7.224 3.217-7.224 7.224s3.217 7.224 7.224 7.224 7.224-3.273 7.224-7.224-3.273-7.224-7.224-7.224zM15.915 21.277c-2.54 0-4.628-2.088-4.628-4.628s2.088-4.628 4.628-4.628 4.628 2.088 4.628 4.628-2.088 4.628-4.628 4.628z"></path>
<path d="M25.058 9.256c0 0.904-0.733 1.637-1.637 1.637s-1.637-0.733-1.637-1.637c0-0.904 0.733-1.637 1.637-1.637s1.637 0.733 1.637 1.637z"></path>
<path d="M27.654 5.023c-1.467-1.524-3.556-2.314-5.926-2.314h-11.626c-4.91 0-8.183 3.273-8.183 8.183v11.57c0 2.427 0.79 4.515 2.37 6.039 1.524 1.467 3.556 2.201 5.869 2.201h11.513c2.427 0 4.459-0.79 5.926-2.201 1.524-1.467 2.314-3.556 2.314-5.982v-11.626c0-2.37-0.79-4.402-2.258-5.87zM27.429 22.519c0 1.75-0.621 3.16-1.637 4.12s-2.427 1.467-4.12 1.467h-11.513c-1.693 0-3.104-0.508-4.12-1.467-1.016-1.016-1.524-2.427-1.524-4.176v-11.57c0-1.693 0.508-3.104 1.524-4.12 0.959-0.959 2.427-1.467 4.12-1.467h11.626c1.693 0 3.104 0.508 4.12 1.524 0.959 1.016 1.524 2.427 1.524 4.064v11.626z"></path>
</symbol>
</defs>
</svg>
